<svg id="svg" version="1.1" xmlns="http://www.w3.org/2000/svg" xmlns:xlink="http://www.w3.org/1999/xlink" width="400" height="400" viewBox="0, 0, 400,400"><g id="svgg"><path id="path0" d="M364.432 154.063 C 344.979 168.658,324.999 183.630,320.032 187.333 C 315.064 191.036,310.415 194.605,309.700 195.265 L 308.400 196.465 308.400 273.832 L 308.400 351.200 341.000 351.200 C 362.467 351.200,373.600 351.063,373.600 350.800 C 373.600 350.567,374.933 350.400,376.800 350.400 C 378.667 350.400,380.000 350.233,380.000 350.000 C 380.000 349.780,380.540 349.600,381.200 349.600 C 381.860 349.600,382.400 349.420,382.400 349.200 C 382.400 348.980,382.755 348.800,383.188 348.800 C 383.621 348.800,384.586 348.457,385.333 348.038 C 386.080 347.618,387.118 347.033,387.641 346.738 C 388.164 346.442,388.884 345.885,389.243 345.500 C 389.601 345.115,390.012 344.800,390.156 344.800 C 390.533 344.800,394.800 340.479,394.800 340.097 C 394.800 339.921,395.160 339.517,395.600 339.200 C 396.040 338.883,396.400 338.303,396.400 337.912 C 396.400 337.520,396.547 337.200,396.726 337.200 C 397.183 337.200,398.800 334.078,398.800 333.196 C 398.800 332.795,399.025 332.392,399.300 332.300 C 399.781 332.140,400.216 197.830,399.905 145.263 L 399.800 127.525 364.432 154.063 " stroke="none" fill="#04ac4b" fill-rule="evenodd"></path><path id="path1" d="M0.095 229.867 C 0.179 311.250,0.302 332.167,0.700 332.300 C 0.975 332.392,1.200 332.795,1.200 333.196 C 1.200 334.078,2.817 337.200,3.274 337.200 C 3.453 337.200,3.600 337.520,3.600 337.912 C 3.600 338.303,3.960 338.883,4.400 339.200 C 4.840 339.517,5.200 339.921,5.200 340.097 C 5.200 340.479,9.467 344.800,9.844 344.800 C 9.988 344.800,10.399 345.115,10.757 345.500 C 11.116 345.885,11.836 346.442,12.359 346.738 C 12.882 347.033,13.920 347.618,14.667 348.038 C 15.414 348.457,16.379 348.800,16.812 348.800 C 17.245 348.800,17.600 348.980,17.600 349.200 C 17.600 349.420,18.140 349.600,18.800 349.600 C 19.460 349.600,20.000 349.780,20.000 350.000 C 20.000 350.233,21.333 350.400,23.200 350.400 C 25.067 350.400,26.400 350.567,26.400 350.800 C 26.400 351.063,37.533 351.200,59.000 351.200 L 91.600 351.200 91.600 273.875 L 91.600 196.551 90.767 195.656 C 90.308 195.164,87.833 193.185,85.267 191.257 C 82.700 189.329,78.440 186.124,75.800 184.135 C 73.160 182.146,57.618 170.496,41.262 158.247 C 24.905 145.998,10.865 135.472,10.062 134.855 C 4.951 130.937,0.427 127.600,0.226 127.600 C 0.097 127.600,0.038 173.620,0.095 229.867 " stroke="none" fill="#0484f4" fill-rule="evenodd"></path><path id="path2" d="M40.400 49.200 C 40.400 49.440,38.800 49.600,36.400 49.600 C 34.000 49.600,32.400 49.760,32.400 50.000 C 32.400 50.220,31.680 50.400,30.800 50.400 C 29.920 50.400,29.200 50.580,29.200 50.800 C 29.200 51.020,28.660 51.200,28.000 51.200 C 27.340 51.200,26.800 51.380,26.800 51.600 C 26.800 51.820,26.350 52.000,25.800 52.000 C 25.250 52.000,24.800 52.180,24.800 52.400 C 24.800 52.620,24.440 52.800,24.000 52.800 C 23.560 52.800,23.200 52.980,23.200 53.200 C 23.200 53.420,22.840 53.600,22.400 53.600 C 21.960 53.600,21.600 53.780,21.600 54.000 C 21.600 54.220,21.240 54.400,20.800 54.400 C 20.360 54.400,20.000 54.580,20.000 54.800 C 20.000 55.020,19.680 55.200,19.288 55.200 C 18.897 55.200,18.317 55.560,18.000 56.000 C 17.683 56.440,17.185 56.800,16.894 56.800 C 16.602 56.800,15.910 57.254,15.356 57.808 C 14.802 58.362,13.865 59.127,13.274 59.508 C 11.489 60.658,10.477 61.644,9.314 63.362 C 8.705 64.263,7.890 65.291,7.503 65.647 C 7.117 66.003,6.800 66.548,6.800 66.859 C 6.800 67.169,6.440 67.683,6.000 68.000 C 5.560 68.317,5.200 68.882,5.200 69.255 C 5.200 69.628,5.065 69.993,4.900 70.067 C 4.468 70.259,2.800 73.572,2.800 74.238 C 2.800 74.547,2.620 74.800,2.400 74.800 C 2.180 74.800,2.000 75.149,2.000 75.576 C 2.000 76.003,1.820 76.464,1.600 76.600 C 1.380 76.736,1.200 77.362,1.200 77.990 C 1.200 78.619,0.975 79.208,0.700 79.300 C 0.309 79.430,0.180 84.682,0.107 103.433 L 0.014 127.400 26.107 146.914 C 40.458 157.647,53.100 167.119,54.200 167.964 C 55.300 168.808,63.709 175.108,72.886 181.964 C 82.063 188.820,89.678 194.603,89.809 194.815 C 89.940 195.027,90.217 195.200,90.424 195.200 C 90.657 195.200,90.800 172.905,90.800 136.480 C 90.800 90.041,90.905 77.654,91.300 77.253 C 91.701 76.847,91.641 76.629,91.000 76.157 C 90.560 75.833,89.794 75.215,89.297 74.784 C 88.800 74.353,88.242 74.000,88.056 74.000 C 87.871 74.000,87.154 73.460,86.463 72.800 C 85.772 72.140,85.052 71.600,84.863 71.600 C 84.674 71.600,83.954 71.060,83.263 70.400 C 82.572 69.740,81.852 69.200,81.663 69.200 C 81.474 69.200,80.754 68.660,80.063 68.000 C 79.372 67.340,78.652 66.800,78.463 66.800 C 78.274 66.800,77.554 66.260,76.863 65.600 C 76.172 64.940,75.459 64.400,75.278 64.400 C 75.098 64.400,74.432 63.860,73.800 63.200 C 73.168 62.540,72.414 62.000,72.125 62.000 C 71.836 62.000,71.599 61.865,71.599 61.700 C 71.598 61.348,69.304 59.754,69.007 59.898 C 68.895 59.952,68.288 59.457,67.659 58.798 C 67.029 58.139,66.284 57.600,66.004 57.600 C 65.723 57.600,65.203 57.284,64.847 56.897 C 64.491 56.511,63.705 55.940,63.100 55.630 C 62.495 55.319,62.000 54.915,62.000 54.732 C 62.000 54.550,61.640 54.400,61.200 54.400 C 60.760 54.400,60.400 54.220,60.400 54.000 C 60.400 53.780,60.040 53.600,59.600 53.600 C 59.160 53.600,58.800 53.420,58.800 53.200 C 58.800 52.980,58.440 52.800,58.000 52.800 C 57.560 52.800,57.200 52.620,57.200 52.400 C 57.200 52.180,56.761 52.000,56.224 52.000 C 55.687 52.000,55.136 51.820,55.000 51.600 C 54.864 51.380,54.313 51.200,53.776 51.200 C 53.239 51.200,52.800 51.020,52.800 50.800 C 52.800 50.580,52.080 50.400,51.200 50.400 C 50.320 50.400,49.600 50.220,49.600 50.000 C 49.600 49.762,48.075 49.600,45.824 49.600 C 43.737 49.600,41.937 49.421,41.800 49.200 C 41.664 48.980,41.293 48.800,40.976 48.800 C 40.659 48.800,40.400 48.980,40.400 49.200 M93.800 78.580 C 94.460 79.139,95.148 79.597,95.329 79.598 C 95.793 79.601,94.754 78.697,93.585 78.082 C 92.767 77.651,92.803 77.736,93.800 78.580 M283.029 95.409 C 282.605 95.729,282.335 96.068,282.429 96.161 C 282.523 96.255,283.025 95.987,283.544 95.566 C 284.638 94.679,284.179 94.539,283.029 95.409 M119.656 97.966 C 120.175 98.387,120.677 98.655,120.771 98.561 C 120.976 98.357,119.544 97.231,119.056 97.213 C 118.866 97.206,119.136 97.545,119.656 97.966 M279.829 97.809 C 279.405 98.129,279.135 98.468,279.229 98.561 C 279.323 98.655,279.825 98.387,280.344 97.966 C 281.438 97.079,280.979 96.939,279.829 97.809 M135.400 109.812 C 136.060 110.353,136.770 110.797,136.978 110.798 C 137.185 110.799,136.745 110.350,136.000 109.800 C 134.260 108.517,133.830 108.525,135.400 109.812 M264.101 109.700 C 263.393 110.195,262.811 110.744,262.807 110.920 C 262.803 111.097,263.430 110.760,264.200 110.173 C 265.434 109.232,265.841 108.800,265.494 108.800 C 265.436 108.800,264.809 109.205,264.101 109.700 M137.600 111.354 C 137.600 111.439,138.095 111.827,138.700 112.216 L 139.800 112.924 139.038 112.062 C 138.364 111.299,137.600 110.923,137.600 111.354 M260.962 112.058 C 260.205 112.910,260.206 112.913,261.078 112.456 C 262.050 111.946,262.649 111.200,262.086 111.200 C 261.887 111.200,261.381 111.586,260.962 112.058 M182.056 144.766 C 182.575 145.187,183.077 145.455,183.171 145.361 C 183.376 145.157,181.944 144.031,181.456 144.013 C 181.266 144.006,181.536 144.345,182.056 144.766 M217.038 145.000 C 216.399 145.550,216.013 146.000,216.180 146.000 C 216.348 146.000,217.019 145.550,217.673 145.000 C 218.327 144.450,218.713 144.000,218.531 144.000 C 218.349 144.001,217.677 144.451,217.038 145.000 M185.256 147.166 C 185.775 147.587,186.266 147.865,186.348 147.785 C 186.589 147.545,185.297 146.400,184.784 146.400 C 184.524 146.400,184.736 146.745,185.256 147.166 M94.000 199.100 C 94.000 199.269,94.360 199.632,94.800 199.907 C 95.240 200.182,95.600 200.269,95.600 200.100 C 95.600 199.931,95.240 199.568,94.800 199.293 C 94.360 199.018,94.000 198.931,94.000 199.100 M304.794 199.618 C 304.247 200.039,303.980 200.380,304.200 200.378 C 304.729 200.373,306.191 199.258,305.965 199.031 C 305.868 198.934,305.341 199.198,304.794 199.618 M97.200 201.500 C 97.200 201.669,97.560 202.032,98.000 202.307 C 98.440 202.582,98.800 202.669,98.800 202.500 C 98.800 202.331,98.440 201.968,98.000 201.693 C 97.560 201.418,97.200 201.331,97.200 201.500 M301.829 201.829 C 301.405 202.138,301.136 202.469,301.230 202.563 C 301.324 202.657,301.748 202.481,302.171 202.171 C 302.595 201.862,302.864 201.531,302.770 201.437 C 302.676 201.343,302.252 201.519,301.829 201.829 M100.400 203.895 C 100.400 204.284,102.014 205.319,102.251 205.082 C 102.347 204.986,101.969 204.610,101.412 204.245 C 100.856 203.880,100.400 203.722,100.400 203.895 M298.394 204.418 C 297.847 204.839,297.580 205.180,297.800 205.178 C 298.329 205.173,299.791 204.058,299.565 203.831 C 299.468 203.734,298.941 203.998,298.394 204.418 M294.800 207.000 C 294.250 207.314,293.980 207.572,294.200 207.572 C 294.420 207.572,295.050 207.314,295.600 207.000 C 296.150 206.686,296.420 206.428,296.200 206.428 C 295.980 206.428,295.350 206.686,294.800 207.000 M112.800 213.100 C 112.800 213.269,113.160 213.632,113.600 213.907 C 114.040 214.182,114.400 214.269,114.400 214.100 C 114.400 213.931,114.040 213.568,113.600 213.293 C 113.160 213.018,112.800 212.931,112.800 213.100 M119.200 217.900 C 119.200 218.069,119.560 218.432,120.000 218.707 C 120.440 218.982,120.800 219.069,120.800 218.900 C 120.800 218.731,120.440 218.368,120.000 218.093 C 119.560 217.818,119.200 217.731,119.200 217.900 M279.829 218.229 C 279.405 218.538,279.172 218.905,279.310 219.043 C 279.449 219.182,279.862 218.995,280.229 218.629 C 281.091 217.766,280.825 217.500,279.829 218.229 M273.107 223.326 C 272.066 224.026,271.211 224.735,271.207 224.899 C 271.203 225.064,272.100 224.552,273.200 223.762 C 274.300 222.972,275.200 222.252,275.200 222.162 C 275.200 221.921,275.158 221.945,273.107 223.326 M125.633 222.916 C 125.725 222.980,126.475 223.529,127.300 224.137 C 128.125 224.744,128.799 225.097,128.797 224.920 C 128.794 224.553,126.323 222.800,125.809 222.800 C 125.621 222.800,125.542 222.852,125.633 222.916 M132.190 227.848 C 132.547 228.204,132.959 228.374,133.107 228.226 C 133.256 228.078,133.112 227.789,132.788 227.584 C 131.843 226.987,131.487 227.144,132.190 227.848 M254.800 237.200 C 254.250 237.630,253.997 237.986,254.238 237.991 C 254.479 237.996,255.002 237.640,255.400 237.200 C 256.312 236.192,256.088 236.192,254.800 237.200 M146.403 238.304 C 146.406 238.668,149.160 240.577,149.365 240.358 C 149.446 240.271,148.812 239.707,147.956 239.104 C 147.100 238.501,146.401 238.141,146.403 238.304 M251.641 239.434 C 250.893 239.965,250.453 240.400,250.663 240.400 C 250.873 240.400,251.655 239.950,252.400 239.400 C 254.135 238.120,253.447 238.151,251.641 239.434 M162.800 250.700 C 162.800 250.869,163.160 251.232,163.600 251.507 C 164.040 251.782,164.400 251.869,164.400 251.700 C 164.400 251.531,164.040 251.168,163.600 250.893 C 163.160 250.618,162.800 250.531,162.800 250.700 M236.229 251.029 C 235.805 251.338,235.536 251.669,235.630 251.763 C 235.724 251.857,236.148 251.681,236.571 251.371 C 236.995 251.062,237.264 250.731,237.170 250.637 C 237.076 250.543,236.652 250.719,236.229 251.029 M166.238 253.400 C 166.877 253.949,167.580 254.398,167.800 254.398 C 168.286 254.396,165.950 252.435,165.438 252.414 C 165.239 252.406,165.599 252.850,166.238 253.400 M232.794 253.618 C 232.247 254.039,231.980 254.380,232.200 254.378 C 232.729 254.373,234.191 253.258,233.965 253.031 C 233.868 252.934,233.341 253.198,232.794 253.618 M172.509 258.000 C 173.069 258.440,173.678 258.796,173.863 258.791 C 174.300 258.780,172.313 257.221,171.846 257.209 C 171.651 257.204,171.950 257.560,172.509 258.000 M178.400 262.300 C 178.400 262.469,178.760 262.832,179.200 263.107 C 179.640 263.382,180.000 263.469,180.000 263.300 C 180.000 263.131,179.640 262.768,179.200 262.493 C 178.760 262.218,178.400 262.131,178.400 262.300 M181.600 264.700 C 181.600 264.869,181.960 265.232,182.400 265.507 C 182.840 265.782,183.200 265.869,183.200 265.700 C 183.200 265.531,182.840 265.168,182.400 264.893 C 181.960 264.618,181.600 264.531,181.600 264.700 M214.012 267.584 C 213.688 267.789,213.544 268.078,213.693 268.226 C 213.841 268.374,214.253 268.204,214.610 267.848 C 215.313 267.144,214.957 266.987,214.012 267.584 M210.812 269.984 C 210.488 270.189,210.344 270.478,210.493 270.626 C 210.641 270.774,211.053 270.604,211.410 270.248 C 212.113 269.544,211.757 269.387,210.812 269.984 M206.400 273.438 C 204.383 275.041,203.913 275.494,204.800 274.982 C 205.963 274.310,208.857 272.000,208.531 272.004 C 208.349 272.006,207.390 272.651,206.400 273.438 M193.799 273.998 C 193.934 274.217,194.440 274.603,194.922 274.856 C 195.794 275.313,195.795 275.310,195.038 274.458 C 194.275 273.598,193.336 273.250,193.799 273.998 M197.200 276.225 C 197.200 276.525,198.273 277.600,198.571 277.600 C 199.080 277.600,198.751 276.962,198.000 276.493 C 197.560 276.218,197.200 276.098,197.200 276.225 " stroke="none" fill="#e41c1c" fill-rule="evenodd"></path><path id="path3" d="M358.200 49.200 C 358.063 49.421,356.263 49.600,354.176 49.600 C 351.925 49.600,350.400 49.762,350.400 50.000 C 350.400 50.220,349.680 50.400,348.800 50.400 C 347.920 50.400,347.200 50.580,347.200 50.800 C 347.200 51.020,346.660 51.200,346.000 51.200 C 345.340 51.200,344.800 51.380,344.800 51.600 C 344.800 51.820,344.350 52.000,343.800 52.000 C 343.250 52.000,342.800 52.180,342.800 52.400 C 342.800 52.620,342.440 52.800,342.000 52.800 C 341.560 52.800,341.200 52.980,341.200 53.200 C 341.200 53.420,340.840 53.600,340.400 53.600 C 339.960 53.600,339.600 53.780,339.600 54.000 C 339.600 54.220,339.240 54.400,338.800 54.400 C 338.360 54.400,338.000 54.550,338.000 54.732 C 338.000 54.915,337.505 55.319,336.900 55.630 C 336.295 55.940,335.509 56.511,335.153 56.897 C 334.797 57.284,334.212 57.600,333.853 57.600 C 333.494 57.600,333.200 57.736,333.200 57.902 C 333.200 58.069,332.125 58.924,330.811 59.802 C 329.497 60.681,328.417 61.535,328.411 61.700 C 328.405 61.865,328.145 62.000,327.833 62.000 C 327.522 62.000,327.207 62.142,327.133 62.315 C 327.060 62.488,326.190 63.253,325.200 64.015 C 324.210 64.777,323.310 65.499,323.200 65.619 C 323.090 65.740,322.370 66.271,321.600 66.800 C 320.830 67.329,319.909 68.086,319.553 68.481 C 319.197 68.876,318.747 69.200,318.553 69.201 C 318.359 69.201,317.570 69.741,316.800 70.400 C 316.030 71.059,315.241 71.599,315.047 71.599 C 314.853 71.600,314.403 71.924,314.047 72.321 C 313.691 72.717,312.275 73.823,310.900 74.779 C 308.555 76.408,307.868 77.200,308.800 77.200 C 309.065 77.200,309.200 97.133,309.200 136.200 C 309.200 168.650,309.285 195.200,309.389 195.200 C 309.571 195.200,324.362 184.219,330.200 179.750 C 331.740 178.571,348.081 166.310,366.514 152.503 L 400.028 127.400 399.914 103.433 C 399.825 84.697,399.691 79.430,399.300 79.300 C 399.025 79.208,398.800 78.608,398.800 77.967 C 398.800 77.325,398.620 76.800,398.400 76.800 C 398.180 76.800,398.000 76.350,398.000 75.800 C 398.000 75.250,397.820 74.800,397.600 74.800 C 397.380 74.800,397.200 74.547,397.200 74.238 C 397.200 73.572,395.532 70.259,395.100 70.067 C 394.935 69.993,394.800 69.588,394.800 69.167 C 394.800 68.745,394.650 68.400,394.468 68.400 C 394.285 68.400,393.880 67.905,393.568 67.300 C 393.255 66.695,392.640 65.820,392.200 65.355 C 391.760 64.891,391.130 64.109,390.800 63.618 C 389.807 62.142,388.696 61.018,386.800 59.576 C 385.810 58.823,384.651 57.891,384.225 57.504 C 383.798 57.117,383.296 56.800,383.108 56.800 C 382.920 56.800,382.380 56.440,381.908 56.000 C 381.436 55.560,380.813 55.200,380.525 55.200 C 380.236 55.200,380.000 55.020,380.000 54.800 C 380.000 54.580,379.640 54.400,379.200 54.400 C 378.760 54.400,378.400 54.220,378.400 54.000 C 378.400 53.780,378.040 53.600,377.600 53.600 C 377.160 53.600,376.800 53.420,376.800 53.200 C 376.800 52.980,376.440 52.800,376.000 52.800 C 375.560 52.800,375.200 52.620,375.200 52.400 C 375.200 52.180,374.750 52.000,374.200 52.000 C 373.650 52.000,373.200 51.820,373.200 51.600 C 373.200 51.380,372.671 51.200,372.024 51.200 C 371.377 51.200,370.736 51.020,370.600 50.800 C 370.464 50.580,369.733 50.400,368.976 50.400 C 368.219 50.400,367.600 50.220,367.600 50.000 C 367.600 49.760,366.000 49.600,363.600 49.600 C 361.200 49.600,359.600 49.440,359.600 49.200 C 359.600 48.980,359.341 48.800,359.024 48.800 C 358.707 48.800,358.336 48.980,358.200 49.200 " stroke="none" fill="#fbbb04" fill-rule="evenodd"></path><path id="path4" d="M91.279 77.281 C 90.911 77.649,90.803 91.458,90.813 136.780 C 90.826 196.546,90.840 197.200,92.126 197.200 C 92.257 197.200,92.790 197.605,93.312 198.100 C 94.558 199.283,95.961 200.400,96.200 200.400 C 96.376 200.400,97.443 201.223,98.545 202.207 C 98.795 202.431,99.977 203.308,101.170 204.157 C 102.364 205.005,103.534 205.859,103.770 206.054 C 105.573 207.543,107.375 208.800,107.708 208.800 C 107.927 208.800,108.397 209.117,108.753 209.503 C 109.109 209.890,110.476 211.015,111.791 212.003 C 114.657 214.157,115.519 214.838,116.216 215.500 C 116.506 215.775,116.936 216.000,117.171 216.000 C 117.407 216.000,117.600 216.141,117.600 216.314 C 117.600 216.486,118.101 216.923,118.712 217.285 C 119.324 217.646,120.449 218.492,121.212 219.165 C 121.976 219.837,122.707 220.390,122.839 220.394 C 122.970 220.397,123.510 220.757,124.039 221.193 C 125.415 222.328,125.633 222.488,127.297 223.600 C 128.121 224.150,128.796 224.735,128.797 224.900 C 128.799 225.065,129.070 225.200,129.400 225.200 C 129.730 225.200,130.001 225.335,130.003 225.500 C 130.004 225.665,130.676 226.250,131.496 226.800 C 132.316 227.350,133.511 228.295,134.153 228.900 C 134.794 229.505,135.482 230.000,135.681 230.000 C 135.880 230.000,136.619 230.539,137.322 231.198 C 138.025 231.857,138.737 232.397,138.904 232.398 C 139.071 232.399,139.772 232.940,140.463 233.600 C 141.154 234.260,141.962 234.800,142.259 234.800 C 142.557 234.800,142.800 234.965,142.800 235.167 C 142.800 235.368,144.285 236.574,146.100 237.845 C 147.915 239.117,149.749 240.482,150.175 240.878 C 150.602 241.275,151.099 241.600,151.279 241.600 C 151.460 241.600,152.172 242.140,152.863 242.800 C 153.554 243.460,154.274 244.000,154.463 244.000 C 154.652 244.000,155.372 244.540,156.063 245.200 C 156.754 245.860,157.496 246.400,157.712 246.400 C 157.929 246.400,158.397 246.724,158.753 247.119 C 159.109 247.514,160.030 248.273,160.800 248.806 C 161.570 249.338,162.395 249.960,162.634 250.187 C 162.873 250.414,163.574 250.960,164.193 251.400 C 164.813 251.840,166.238 252.920,167.362 253.800 C 168.486 254.680,170.574 256.201,172.003 257.179 C 173.431 258.158,174.891 259.283,175.247 259.679 C 175.603 260.076,176.018 260.400,176.170 260.400 C 176.417 260.400,179.496 262.666,180.000 263.219 C 180.110 263.340,180.830 263.875,181.600 264.408 C 182.370 264.941,183.448 265.787,183.996 266.289 C 184.544 266.790,185.104 267.200,185.242 267.200 C 185.379 267.200,186.101 267.737,186.846 268.394 C 187.591 269.050,188.307 269.590,188.439 269.594 C 188.570 269.597,189.110 269.979,189.639 270.442 C 190.167 270.906,191.410 271.843,192.400 272.526 C 194.308 273.842,197.332 276.071,198.505 277.026 C 199.308 277.680,201.200 277.802,201.200 277.200 C 201.200 276.980,201.470 276.800,201.800 276.800 C 202.130 276.800,202.400 276.620,202.400 276.400 C 202.400 276.180,202.655 276.000,202.967 276.000 C 203.278 276.000,203.593 275.863,203.667 275.696 C 203.740 275.528,205.240 274.320,207.000 273.010 C 208.760 271.700,210.438 270.396,210.729 270.114 C 211.019 269.831,211.379 269.597,211.529 269.594 C 211.678 269.590,212.409 269.050,213.154 268.394 C 213.899 267.737,214.656 267.200,214.836 267.200 C 215.016 267.200,215.614 266.750,216.164 266.200 C 216.714 265.650,217.260 265.200,217.377 265.200 C 217.592 265.200,218.833 264.233,219.816 263.300 C 220.106 263.025,220.447 262.800,220.575 262.800 C 220.703 262.800,221.372 262.260,222.063 261.600 C 222.754 260.940,223.474 260.400,223.663 260.400 C 223.852 260.400,224.572 259.860,225.263 259.200 C 225.954 258.540,226.747 258.000,227.026 258.000 C 227.305 258.000,227.593 257.843,227.667 257.651 C 227.740 257.459,228.533 256.784,229.430 256.151 C 231.388 254.768,234.371 252.560,235.200 251.880 C 235.530 251.610,236.430 250.944,237.200 250.400 C 239.080 249.072,239.960 248.371,241.088 247.300 C 241.610 246.805,242.232 246.400,242.471 246.400 C 242.710 246.400,243.197 246.076,243.553 245.681 C 243.909 245.286,244.830 244.527,245.600 243.994 C 246.370 243.462,247.239 242.794,247.531 242.511 C 247.823 242.227,248.453 241.791,248.931 241.542 C 249.409 241.293,250.070 240.836,250.400 240.527 C 250.730 240.217,252.170 239.121,253.600 238.091 C 255.030 237.061,256.290 236.115,256.400 235.990 C 256.510 235.864,257.230 235.329,258.000 234.800 C 258.770 234.271,259.691 233.514,260.047 233.119 C 260.403 232.724,260.871 232.400,261.088 232.400 C 261.304 232.400,262.046 231.860,262.737 231.200 C 263.428 230.540,264.148 230.000,264.337 230.000 C 264.526 230.000,265.246 229.460,265.937 228.800 C 266.628 228.140,267.348 227.600,267.537 227.600 C 267.726 227.600,268.446 227.060,269.137 226.400 C 269.828 225.740,270.559 225.200,270.763 225.200 C 270.967 225.200,271.193 225.055,271.267 224.877 C 271.340 224.699,272.210 223.998,273.200 223.319 C 274.190 222.640,275.433 221.706,275.961 221.242 C 276.490 220.779,277.030 220.397,277.161 220.392 C 277.293 220.388,278.118 219.758,278.996 218.992 C 279.873 218.227,280.778 217.600,281.007 217.600 C 281.236 217.600,281.683 217.240,282.000 216.800 C 282.317 216.360,282.715 216.000,282.884 216.000 C 283.178 216.000,284.304 215.155,285.416 214.100 C 285.706 213.825,286.096 213.600,286.283 213.600 C 286.470 213.600,286.883 213.240,287.200 212.800 C 287.517 212.360,288.007 212.000,288.288 212.000 C 288.570 212.000,288.800 211.820,288.800 211.600 C 288.800 211.380,288.990 211.200,289.222 211.200 C 289.454 211.200,290.219 210.661,290.922 210.002 C 291.625 209.343,292.415 208.803,292.677 208.802 C 292.940 208.801,293.390 208.469,293.677 208.063 C 293.965 207.658,294.646 207.090,295.192 206.800 C 295.737 206.511,296.426 206.031,296.722 205.735 C 297.018 205.439,298.101 204.625,299.130 203.925 C 300.158 203.225,301.090 202.550,301.200 202.425 C 301.310 202.300,302.476 201.388,303.791 200.399 C 307.095 197.913,307.590 197.512,308.449 196.625 C 309.177 195.873,309.200 194.016,309.200 136.558 C 309.200 72.328,309.338 75.995,307.000 77.893 C 305.874 78.807,302.692 81.189,300.178 83.000 C 299.568 83.440,298.873 83.986,298.634 84.213 C 298.395 84.440,297.570 85.068,296.800 85.607 C 295.281 86.672,294.209 87.517,293.384 88.300 C 293.094 88.575,292.704 88.800,292.517 88.800 C 292.330 88.800,291.917 89.160,291.600 89.600 C 291.283 90.040,290.838 90.403,290.612 90.407 C 290.385 90.411,289.660 90.850,289.000 91.382 C 288.340 91.914,285.100 94.377,281.800 96.856 C 278.500 99.334,275.562 101.596,275.271 101.881 C 274.981 102.167,274.619 102.400,274.467 102.400 C 274.316 102.400,273.744 102.810,273.196 103.311 C 272.648 103.813,271.570 104.663,270.800 105.200 C 270.030 105.738,269.051 106.498,268.625 106.889 C 268.198 107.280,267.695 107.600,267.506 107.600 C 267.318 107.600,266.751 108.005,266.247 108.500 C 265.743 108.995,264.298 110.120,263.036 111.000 C 261.774 111.880,259.990 113.186,259.071 113.903 C 256.640 115.798,256.721 115.738,255.200 116.792 C 254.430 117.325,253.710 117.869,253.600 118.000 C 253.490 118.131,252.770 118.671,252.000 119.200 C 251.230 119.729,250.510 120.261,250.400 120.382 C 250.290 120.503,249.120 121.410,247.800 122.398 C 246.480 123.385,245.130 124.465,244.800 124.797 C 244.470 125.128,243.570 125.750,242.800 126.178 C 242.030 126.605,241.162 127.190,240.871 127.478 C 240.580 127.766,239.140 128.855,237.671 129.899 C 235.052 131.761,233.965 132.588,233.055 133.413 C 232.805 133.640,231.970 134.262,231.200 134.794 C 230.430 135.327,229.509 136.086,229.153 136.481 C 228.797 136.876,228.329 137.200,228.112 137.200 C 227.896 137.200,227.154 137.740,226.463 138.400 C 225.772 139.060,225.052 139.600,224.863 139.600 C 224.674 139.600,223.954 140.140,223.263 140.800 C 222.572 141.460,221.871 142.001,221.704 142.002 C 221.537 142.003,220.161 142.993,218.647 144.202 C 217.132 145.411,215.780 146.400,215.642 146.400 C 215.504 146.400,214.673 147.027,213.796 147.792 C 212.918 148.558,212.078 149.188,211.929 149.192 C 211.779 149.197,211.419 149.428,211.129 149.706 C 210.838 149.984,209.790 150.834,208.800 151.595 C 207.810 152.357,206.910 153.083,206.800 153.209 C 206.690 153.335,205.970 153.875,205.200 154.408 C 204.430 154.942,203.451 155.698,203.025 156.089 C 202.598 156.480,202.079 156.800,201.871 156.800 C 201.664 156.800,201.167 157.177,200.767 157.638 L 200.040 158.476 199.002 157.438 C 198.431 156.867,197.811 156.400,197.624 156.400 C 197.437 156.400,196.707 155.860,196.000 155.200 C 195.293 154.540,194.563 154.000,194.376 154.000 C 194.189 154.000,193.609 153.573,193.088 153.051 C 192.566 152.529,191.720 151.878,191.207 151.604 C 190.695 151.330,189.898 150.761,189.438 150.340 C 188.185 149.197,178.521 142.000,178.238 142.000 C 178.103 142.000,177.428 141.460,176.737 140.800 C 176.046 140.140,175.304 139.600,175.088 139.600 C 174.871 139.600,174.403 139.278,174.047 138.883 C 173.691 138.489,170.880 136.293,167.800 134.002 C 164.720 131.712,161.962 129.604,161.671 129.319 C 161.381 129.034,161.019 128.800,160.867 128.800 C 160.716 128.800,160.099 128.343,159.496 127.784 C 158.893 127.225,158.397 126.910,158.394 127.084 C 158.391 127.258,158.256 127.220,158.094 126.999 C 157.932 126.778,156.720 125.789,155.400 124.800 C 154.080 123.811,152.910 122.903,152.800 122.782 C 152.690 122.661,151.970 122.129,151.200 121.600 C 150.430 121.071,149.710 120.531,149.600 120.400 C 149.490 120.269,148.770 119.729,148.000 119.200 C 147.230 118.671,146.309 117.914,145.953 117.519 C 145.597 117.124,145.145 116.800,144.949 116.800 C 144.752 116.800,143.873 116.173,142.996 115.408 C 142.118 114.642,141.278 114.012,141.129 114.008 C 140.979 114.003,140.619 113.767,140.329 113.483 C 140.038 113.199,138.630 112.132,137.200 111.113 C 135.770 110.094,134.203 108.887,133.717 108.430 C 133.231 107.974,132.684 107.600,132.501 107.600 C 132.318 107.600,131.372 106.880,130.400 106.000 C 129.428 105.120,128.482 104.400,128.298 104.400 C 128.114 104.400,127.514 103.950,126.964 103.400 C 126.414 102.850,125.811 102.400,125.624 102.400 C 125.437 102.400,124.707 101.860,124.000 101.200 C 123.293 100.540,122.567 100.000,122.386 100.000 C 122.205 100.000,121.819 99.766,121.529 99.481 C 121.238 99.195,119.740 98.012,118.200 96.852 C 116.660 95.691,115.130 94.528,114.800 94.265 C 114.470 94.003,113.570 93.346,112.800 92.805 C 112.030 92.264,111.051 91.502,110.625 91.111 C 110.198 90.720,109.653 90.400,109.413 90.400 C 109.173 90.400,108.717 90.040,108.400 89.600 C 108.083 89.160,107.685 88.800,107.516 88.800 C 107.347 88.800,106.832 88.485,106.371 88.100 C 105.910 87.715,105.212 87.130,104.820 86.800 C 103.991 86.102,102.792 85.195,99.200 82.544 C 97.770 81.488,96.510 80.525,96.400 80.403 C 96.290 80.281,95.660 79.847,95.000 79.439 C 94.340 79.031,93.341 78.270,92.779 77.749 C 91.986 77.013,91.651 76.909,91.279 77.281 " stroke="none" fill="#fc4434" fill-rule="evenodd"></path></g></svg>